<svg width="31" height="30" viewBox="0 0 31 30" fill="none" xmlns="http://www.w3.org/2000/svg">
<path d="M15.9085 17.9231C17.555 17.9231 18.8974 16.5823 18.8974 14.9335C18.8974 14.2826 18.6846 13.6817 18.3323 13.1909C17.7895 12.4377 16.907 11.9439 15.9103 11.9439C14.913 11.9439 14.0311 12.4371 13.4871 13.1903C13.1336 13.6811 12.9226 14.282 12.922 14.9329C12.9202 16.5817 14.2614 17.9231 15.9085 17.9231Z" fill="#0096F5"/>
<path d="M22.4332 11.2766V8.7706V8.39764L22.0587 8.39885L19.5555 8.40667L19.5652 11.2862L22.4332 11.2766Z" fill="#0096F5"/>
<path fill-rule="evenodd" clip-rule="evenodd" d="M0.984985 14.9339C0.984985 6.69953 7.67996 0.000244141 15.9091 0.000244141C24.1388 0.000244141 30.8332 6.69953 30.8332 14.9339C30.8332 23.1677 24.1376 29.8676 15.9091 29.8676C7.67996 29.8676 0.984985 23.1677 0.984985 14.9339ZM24.3971 20.1446V13.1909V9.72363C24.3971 7.91301 22.9255 6.44106 21.116 6.44106H10.7023C8.89288 6.44106 7.42188 7.91301 7.42188 9.72363V13.1909V20.1446C7.42188 21.9558 8.89288 23.4278 10.7023 23.4278H21.1166C22.9255 23.4278 24.3971 21.9558 24.3971 20.1446Z" fill="#0096F5"/>
<path d="M20.5517 14.9332C20.5517 17.4939 18.4693 19.5788 15.909 19.5788C13.3487 19.5788 11.267 17.4939 11.267 14.9332C11.267 14.3172 11.3896 13.7283 11.6084 13.1906H9.07458V20.1443C9.07458 21.043 9.80378 21.7708 10.7013 21.7708H21.115C22.0113 21.7708 22.7417 21.043 22.7417 20.1443V13.1906H20.2066C20.4273 13.7283 20.5517 14.3172 20.5517 14.9332Z" fill="#0096F5"/>
</svg>
