<svg width="31" height="30" viewBox="0 0 31 30" fill="none" xmlns="http://www.w3.org/2000/svg">
<path d="M12.7589 18.2879C15.0083 17.1207 17.2381 15.9643 19.4884 14.7965C17.2313 13.618 15.0022 12.4548 12.7589 11.2834C12.7589 13.6263 12.7589 15.9453 12.7589 18.2879Z" fill="#0096F5"/>
<path fill-rule="evenodd" clip-rule="evenodd" d="M0.5 15C0.5 6.7157 7.21169 0 15.4903 0C23.769 0 30.4807 6.7157 30.4807 15C30.4807 23.2843 23.769 30 15.4903 30C7.21169 30 0.5 23.2843 0.5 15ZM23.416 22.0879C24.5241 21.9642 25.4449 21.1334 25.7044 20.0071C26.0733 18.4029 26.0742 16.6517 26.0742 15.0002V14.9597C26.0743 13.3201 26.0743 11.5844 25.7083 9.99335C25.4495 8.8667 24.5287 8.0359 23.42 7.91191C20.7958 7.61851 18.1391 7.61698 15.4944 7.61851C12.849 7.61698 10.1923 7.61851 7.56718 7.91191C6.45905 8.0359 5.53892 8.867 5.28006 9.99335C4.91109 11.5972 4.9068 13.3487 4.9068 15.0002C4.9068 16.6517 4.9068 18.4026 5.27577 20.0071C5.53463 21.1334 6.45475 21.9642 7.56289 22.0879C10.188 22.3816 12.8447 22.3831 15.4901 22.3816C18.1354 22.3831 20.7915 22.3816 23.416 22.0879Z" fill="#0096F5"/>
</svg>
